<svg width="17" height="16" viewBox="0 0 17 16" fill="none" xmlns="http://www.w3.org/2000/svg">
<path d="M4.5 2.3335C4.5 2.06683 4.6 1.8335 4.8 1.6335C5 1.4335 5.23333 1.3335 5.5 1.3335L11.5 1.3335C11.7556 1.3335 11.9861 1.4335 12.1917 1.6335C12.3972 1.8335 12.5 2.06683 12.5 2.3335V13.6668C12.5 13.9335 12.3972 14.1668 12.1917 14.3668C11.9861 14.5668 11.7556 14.6668 11.5 14.6668H5.5C5.23333 14.6668 5 14.5668 4.8 14.3668C4.6 14.1668 4.5 13.9335 4.5 13.6668L4.5 2.3335ZM5.5 2.3335L5.5 13.6668H11.5V11.5002H8.5V10.5002H11.5V8.50016H8.5V7.50016H11.5V5.50016H8.5V4.50016H11.5V2.3335L5.5 2.3335ZM8.5 4.50016V5.50016V4.50016ZM8.5 7.50016V8.50016V7.50016ZM8.5 10.5002V11.5002V10.5002Z" fill="#1D1D1D"/>
</svg>
