<svg width="17" height="16" viewBox="0 0 17 16" fill="none" xmlns="http://www.w3.org/2000/svg">
<path d="M4.28333 12.9998H13.05L12 5.6665H5.33333L4.28333 12.9998ZM8.66667 4.6665C8.95556 4.6665 9.19444 4.56928 9.38333 4.37484C9.57222 4.18039 9.66667 3.94428 9.66667 3.6665C9.66667 3.37761 9.57222 3.13873 9.38333 2.94984C9.19444 2.76095 8.95556 2.6665 8.66667 2.6665C8.38889 2.6665 8.15278 2.76095 7.95833 2.94984C7.76389 3.13873 7.66667 3.37761 7.66667 3.6665C7.66667 3.94428 7.76389 4.18039 7.95833 4.37484C8.15278 4.56928 8.38889 4.6665 8.66667 4.6665ZM10.4 4.6665H12C12.2556 4.6665 12.4778 4.74706 12.6667 4.90817C12.8556 5.06928 12.9667 5.27761 13 5.53317L14.0333 12.8665C14.0778 13.1665 14.0028 13.4304 13.8083 13.6582C13.6139 13.8859 13.3611 13.9998 13.05 13.9998H4.28333C3.97222 13.9998 3.71945 13.8859 3.525 13.6582C3.33056 13.4304 3.25556 13.1665 3.3 12.8665L4.33333 5.53317C4.36667 5.27761 4.47778 5.06928 4.66667 4.90817C4.85556 4.74706 5.07778 4.6665 5.33333 4.6665H6.93333C6.84444 4.51095 6.77778 4.35261 6.73333 4.1915C6.68889 4.03039 6.66667 3.85539 6.66667 3.6665C6.66667 3.11095 6.86111 2.63873 7.25 2.24984C7.63889 1.86095 8.11111 1.6665 8.66667 1.6665C9.22222 1.6665 9.69444 1.86095 10.0833 2.24984C10.4722 2.63873 10.6667 3.11095 10.6667 3.6665C10.6667 3.85539 10.6444 4.03039 10.6 4.1915C10.5556 4.35261 10.4889 4.51095 10.4 4.6665ZM4.28333 12.9998H13.05H4.28333Z" fill="#1D1D1D"/>
</svg>
